<svg width="150" height="16" viewBox="0 0 150 16" fill="none" xmlns="http://www.w3.org/2000/svg">
<g style="mix-blend-mode:screen">
<g style="mix-blend-mode:screen">
<g style="mix-blend-mode:screen">
<path d="M5.30799 11.733V11.572C5.11585 11.7973 4.89993 12.0011 4.66399 12.18C4.45529 12.3357 4.22257 12.4563 3.975 12.537C3.71342 12.6214 3.43982 12.6626 3.16499 12.659C2.79136 12.6624 2.42216 12.5781 2.087 12.413C1.7528 12.2464 1.46 12.0072 1.22999 11.713C0.980041 11.3932 0.79337 11.0287 0.679985 10.639C0.552534 10.2052 0.489531 9.75511 0.492989 9.30302C0.441244 8.44905 0.705341 7.60586 1.23499 6.934C1.47688 6.65593 1.77789 6.43546 2.11597 6.28873C2.45406 6.14201 2.82067 6.07275 3.18899 6.08601C3.59592 6.07352 4.0002 6.15566 4.36999 6.326C4.72468 6.51372 5.04247 6.76411 5.30799 7.06501V4.67301C5.28952 4.40648 5.35984 4.14135 5.50799 3.91901C5.57504 3.83432 5.66145 3.76695 5.75994 3.72257C5.85843 3.6782 5.96613 3.65812 6.074 3.66401C6.18007 3.65741 6.28624 3.67504 6.38448 3.71558C6.48272 3.75613 6.57045 3.81853 6.641 3.89802C6.78749 4.09773 6.85836 4.34293 6.841 4.59V11.737C6.8615 11.9891 6.78495 12.2395 6.62699 12.437C6.55709 12.5131 6.47156 12.573 6.37627 12.6129C6.28099 12.6528 6.17822 12.6716 6.07499 12.668C5.97151 12.6705 5.86873 12.6503 5.77389 12.6089C5.67904 12.5674 5.59444 12.5057 5.52599 12.428C5.36801 12.2323 5.2901 11.9839 5.30799 11.733V11.733ZM2.11999 9.353C2.10945 9.7372 2.17928 10.1194 2.32499 10.475C2.43896 10.7585 2.63413 11.002 2.88599 11.175C3.11574 11.3291 3.38634 11.411 3.66299 11.41C3.93939 11.4126 4.21064 11.3352 4.44399 11.187C4.69483 11.0199 4.89097 10.7828 5.00799 10.505C5.1588 10.1413 5.2304 9.74956 5.21799 9.356C5.22762 8.97399 5.15603 8.5943 5.00799 8.24201C4.88755 7.9565 4.69023 7.71001 4.438 7.53001C4.20751 7.36927 3.93298 7.28371 3.65199 7.28501C3.36529 7.28067 3.08482 7.36867 2.852 7.53602C2.60566 7.72063 2.41725 7.97184 2.309 8.26002C2.17565 8.60863 2.11144 8.97986 2.11999 9.353Z" fill="#F58225"/>
</g>
<g style="mix-blend-mode:screen">
<path d="M12.454 9.76301H9.28399C9.2807 10.1004 9.35711 10.4337 9.507 10.736C9.6297 10.9936 9.8239 11.2106 10.0664 11.3609C10.309 11.5113 10.5897 11.5887 10.875 11.584C11.0543 11.5866 11.233 11.564 11.406 11.517C11.5715 11.4691 11.729 11.3966 11.873 11.302C12.0189 11.2088 12.1576 11.1048 12.288 10.991C12.414 10.88 12.578 10.729 12.781 10.54C12.8828 10.4624 13.0092 10.4241 13.137 10.432C13.2829 10.426 13.4258 10.4753 13.537 10.57C13.5896 10.619 13.6308 10.679 13.6576 10.7457C13.6844 10.8124 13.6961 10.8842 13.692 10.956C13.6798 11.139 13.6205 11.3157 13.52 11.469C13.3836 11.6877 13.2072 11.8787 13 12.032C12.7364 12.2295 12.4412 12.381 12.127 12.48C11.737 12.6059 11.3288 12.6664 10.919 12.659C10.475 12.6857 10.0303 12.6204 9.61264 12.4672C9.19502 12.3141 8.81352 12.0764 8.492 11.769C8.19418 11.4441 7.96411 11.0631 7.81524 10.6483C7.66638 10.2335 7.6017 9.79312 7.625 9.35301C7.62052 8.89977 7.69288 8.44905 7.839 8.02C7.97017 7.62903 8.18248 7.27021 8.462 6.96702C8.74284 6.66871 9.08787 6.43821 9.47099 6.29301C9.89572 6.13219 10.3469 6.05249 10.801 6.05802C11.3702 6.04132 11.9333 6.17957 12.43 6.45802C12.8594 6.70106 13.2121 7.05963 13.448 7.49302C13.6664 7.88963 13.7829 8.33425 13.787 8.787C13.787 9.196 13.67 9.459 13.437 9.58C13.128 9.71644 12.7914 9.7791 12.454 9.76301V9.76301ZM9.28399 8.843H12.223C12.2212 8.38896 12.0626 7.9495 11.774 7.59901C11.6427 7.46135 11.4835 7.35331 11.3071 7.28208C11.1307 7.21086 10.9411 7.17811 10.751 7.18601C10.5641 7.17964 10.3779 7.2137 10.2053 7.28584C10.0328 7.35798 9.8778 7.4665 9.751 7.60401C9.4651 7.95545 9.30119 8.39028 9.28399 8.843V8.843Z" fill="#F58225"/>
</g>
<g style="mix-blend-mode:screen">
<path d="M19.838 10.54C19.857 10.9504 19.7411 11.3557 19.5079 11.6939C19.2748 12.0322 18.9373 12.2847 18.547 12.413C18.049 12.5891 17.523 12.6724 16.995 12.659C16.482 12.6728 15.9715 12.5816 15.495 12.391C15.1346 12.2547 14.817 12.0248 14.575 11.725C14.3899 11.4962 14.2846 11.2132 14.275 10.919C14.2737 10.834 14.2899 10.7497 14.3226 10.6713C14.3553 10.5928 14.4038 10.5219 14.465 10.463C14.5281 10.4004 14.6033 10.3512 14.686 10.3185C14.7686 10.2859 14.8571 10.2704 14.946 10.273C15.0874 10.2637 15.2272 10.3084 15.337 10.398C15.4426 10.4992 15.5308 10.6171 15.598 10.747C15.7404 11.01 15.9467 11.2328 16.198 11.395C16.4878 11.5515 16.815 11.6256 17.144 11.609C17.4268 11.621 17.7064 11.5448 17.944 11.391C18.0331 11.3411 18.1083 11.2697 18.1627 11.1832C18.217 11.0967 18.2487 10.998 18.255 10.896C18.2638 10.7725 18.2383 10.6489 18.1813 10.539C18.1243 10.4291 18.038 10.337 17.932 10.273C17.5961 10.0985 17.2372 9.9726 16.866 9.89899C16.4009 9.79055 15.9454 9.64442 15.504 9.46201C15.1809 9.33046 14.8932 9.12495 14.664 8.86201C14.4508 8.60337 14.3388 8.27606 14.349 7.94102C14.3507 7.61197 14.4521 7.29116 14.64 7.021C14.8557 6.71489 15.1529 6.47546 15.498 6.32999C15.9303 6.14697 16.3967 6.05868 16.866 6.07102C17.248 6.06514 17.6291 6.10849 18 6.20002C18.2964 6.27029 18.5792 6.38886 18.837 6.551C19.0391 6.67513 19.2129 6.84039 19.347 7.03602C19.4557 7.18927 19.5165 7.37122 19.522 7.559C19.5247 7.64395 19.5096 7.72853 19.4775 7.80726C19.4455 7.88598 19.3973 7.95709 19.336 8.016C19.1888 8.14274 18.9979 8.20699 18.804 8.19501C18.65 8.19928 18.4996 8.14817 18.38 8.051C18.2322 7.92334 18.0981 7.78057 17.98 7.62501C17.8626 7.47033 17.7153 7.34076 17.547 7.244C17.3372 7.13936 17.1041 7.09046 16.87 7.102C16.6136 7.09166 16.3598 7.15669 16.14 7.28901C16.0548 7.33395 15.983 7.40064 15.9319 7.48231C15.8808 7.56398 15.8522 7.65771 15.849 7.75401C15.8479 7.83588 15.8667 7.91679 15.9038 7.98978C15.9409 8.06278 15.9952 8.12567 16.062 8.17301C16.2361 8.29785 16.4317 8.3897 16.639 8.44401C16.8797 8.51467 17.213 8.60135 17.639 8.70402C18.0659 8.80008 18.4796 8.94748 18.871 9.14301C19.1555 9.28428 19.4034 9.48968 19.595 9.74302C19.7587 9.97608 19.8438 10.2553 19.838 10.54V10.54Z" fill="#F58225"/>
</g>
<g style="mix-blend-mode:screen">
<path d="M21.494 5.31601C21.2821 5.32054 21.076 5.24684 20.915 5.10901C20.8384 5.03344 20.7776 4.9433 20.7364 4.84391C20.6951 4.74451 20.6741 4.63787 20.6747 4.53025C20.6752 4.42263 20.6973 4.31619 20.7396 4.21723C20.7819 4.11827 20.8436 4.02879 20.921 3.95401C21.076 3.80835 21.2813 3.72811 21.494 3.73002C21.698 3.72748 21.8961 3.79846 22.052 3.93C22.1348 4.00264 22.1998 4.09338 22.242 4.19516C22.2841 4.29695 22.3022 4.40707 22.295 4.517C22.3011 4.62606 22.283 4.7351 22.2418 4.83628C22.2007 4.93745 22.1375 5.02821 22.057 5.10199C21.9032 5.24199 21.702 5.31848 21.494 5.31601V5.31601ZM22.294 6.99V11.674C22.3134 11.9398 22.2308 12.203 22.063 12.41C21.9886 12.4913 21.8976 12.5556 21.7961 12.5985C21.6946 12.6415 21.5851 12.6621 21.475 12.659C21.3655 12.6628 21.2566 12.6418 21.1563 12.5977C21.0561 12.5535 20.9671 12.4873 20.896 12.404C20.7352 12.196 20.6562 11.9363 20.674 11.674V7.03699C20.6545 6.77635 20.7337 6.5179 20.896 6.31299C20.969 6.23276 21.0587 6.1694 21.1586 6.12726C21.2586 6.08513 21.3666 6.06525 21.475 6.06901C21.5847 6.06592 21.6938 6.08607 21.7951 6.12812C21.8964 6.17017 21.9877 6.23316 22.063 6.31299C22.2259 6.49963 22.3092 6.74267 22.295 6.99H22.294Z" fill="#F58225"/>
</g>
<g style="mix-blend-mode:screen">
<path d="M29.4 7.25698V11.964C29.4088 12.4335 29.3505 12.9019 29.227 13.355C29.1272 13.7166 28.9373 14.0469 28.675 14.315C28.3961 14.5832 28.0543 14.7772 27.681 14.879C27.1828 15.0136 26.6679 15.0755 26.152 15.063C25.6423 15.0714 25.1349 14.9923 24.652 14.829C24.2719 14.7075 23.9247 14.5005 23.637 14.224C23.4226 14.0264 23.2947 13.7523 23.281 13.461C23.2775 13.3707 23.2935 13.2806 23.3281 13.1971C23.3626 13.1136 23.4148 13.0385 23.481 12.977C23.6121 12.8531 23.7866 12.7856 23.967 12.789C24.0881 12.7909 24.2071 12.8202 24.3152 12.8747C24.4233 12.9293 24.5176 13.0077 24.591 13.104C24.677 13.21 24.767 13.319 24.861 13.428C24.9507 13.5344 25.0543 13.6282 25.169 13.707C25.2929 13.789 25.4309 13.8473 25.576 13.879C25.7552 13.9187 25.9384 13.9379 26.122 13.936C26.4568 13.9523 26.7909 13.8921 27.099 13.76C27.3144 13.6597 27.487 13.486 27.586 13.27C27.6799 13.0568 27.7351 12.8286 27.749 12.596C27.765 12.357 27.777 11.973 27.784 11.442C27.5604 11.7704 27.2654 12.0439 26.921 12.242C26.562 12.4321 26.1601 12.5265 25.754 12.516C25.2485 12.5266 24.752 12.3814 24.332 12.1C23.9154 11.8097 23.5912 11.4056 23.398 10.936C23.171 10.3891 23.06 9.80103 23.072 9.209C23.0666 8.76205 23.1341 8.31718 23.272 7.89199C23.39 7.52549 23.5831 7.18762 23.839 6.89998C24.0743 6.6378 24.364 6.43028 24.688 6.29198C25.023 6.15394 25.3827 6.0859 25.745 6.092C26.158 6.08246 26.5673 6.17268 26.938 6.355C27.3069 6.56035 27.6269 6.84315 27.876 7.18398V6.96398C27.8613 6.72813 27.9351 6.4953 28.083 6.31099C28.1498 6.23556 28.2323 6.17569 28.3248 6.13561C28.4172 6.09553 28.5173 6.0762 28.618 6.079C28.7405 6.06349 28.8649 6.08429 28.9756 6.13888C29.0864 6.19346 29.1787 6.27938 29.241 6.38598C29.3584 6.66078 29.4127 6.95841 29.4 7.25698ZM24.7 9.31099C24.6614 9.84301 24.8139 10.3713 25.13 10.801C25.265 10.9642 25.4354 11.0945 25.6282 11.182C25.8211 11.2695 26.0313 11.3119 26.243 11.306C26.5125 11.3055 26.7766 11.2303 27.006 11.089C27.258 10.93 27.4606 10.7039 27.591 10.436C27.7497 10.1057 27.8269 9.74224 27.816 9.376C27.8493 8.82717 27.6956 8.28326 27.38 7.833C27.2457 7.6568 27.0716 7.51497 26.8718 7.41918C26.6721 7.32339 26.4525 7.27639 26.231 7.282C26.0169 7.27507 25.8041 7.31935 25.6106 7.41118C25.417 7.50302 25.2481 7.63974 25.118 7.80999C24.8131 8.24874 24.6658 8.77781 24.7 9.31099V9.31099Z" fill="#F58225"/>
</g>
<g style="mix-blend-mode:screen">
<path d="M31.97 6.96702V7.16199C32.2158 6.81956 32.5353 6.53664 32.905 6.33402C33.2664 6.15225 33.6666 6.06128 34.071 6.06901C34.4707 6.06244 34.8654 6.15887 35.217 6.349C35.5445 6.52641 35.8082 6.80199 35.971 7.137C36.0784 7.33702 36.1485 7.5549 36.178 7.78C36.214 8.07124 36.2304 8.36456 36.227 8.65799V11.674C36.2459 11.9384 36.1665 12.2005 36.004 12.41C35.9288 12.4894 35.8381 12.5525 35.7375 12.5955C35.6369 12.6384 35.5286 12.6603 35.4192 12.6597C35.3098 12.6591 35.2017 12.6362 35.1016 12.5922C35.0015 12.5482 34.9114 12.4842 34.837 12.404C34.6743 12.1969 34.5941 11.9368 34.612 11.674V8.974C34.6338 8.55357 34.5575 8.13381 34.389 7.74799C34.2971 7.59972 34.1646 7.48096 34.0072 7.4058C33.8498 7.33064 33.6741 7.30225 33.501 7.32401C33.2169 7.32242 32.9399 7.41333 32.712 7.58301C32.4697 7.76077 32.2873 8.00805 32.189 8.292C32.0894 8.73604 32.0497 9.19142 32.071 9.646V11.676C32.091 11.9424 32.0092 12.2066 31.842 12.415C31.7671 12.496 31.6756 12.5599 31.5738 12.6023C31.472 12.6447 31.3622 12.6648 31.252 12.661C31.1431 12.6641 31.0348 12.6428 30.9352 12.5986C30.8355 12.5545 30.747 12.4887 30.676 12.406C30.5134 12.1988 30.4329 11.9389 30.45 11.676V6.99C30.4301 6.74266 30.5012 6.49659 30.65 6.29801C30.7194 6.22146 30.8049 6.16124 30.9003 6.12165C30.9958 6.08206 31.0988 6.06407 31.202 6.06901C31.3374 6.06649 31.4709 6.10108 31.588 6.16901C31.7068 6.24056 31.8026 6.34466 31.864 6.469C31.9392 6.62394 31.9756 6.79487 31.97 6.96702Z" fill="#F58225"/>
</g>
<g style="mix-blend-mode:screen">
<path d="M41.829 9.76301H38.659C38.6562 10.1003 38.7326 10.4336 38.882 10.736C39.0047 10.9936 39.1989 11.2106 39.4415 11.3609C39.684 11.5113 39.9647 11.5887 40.25 11.584C40.4296 11.5865 40.6086 11.5639 40.782 11.517C40.9472 11.4689 41.1042 11.3964 41.248 11.302C41.394 11.2086 41.5331 11.1046 41.664 10.991C41.79 10.88 41.954 10.729 42.156 10.54C42.2579 10.4624 42.3842 10.4241 42.512 10.432C42.6579 10.4264 42.8006 10.4756 42.912 10.57C42.9645 10.6191 43.0055 10.6791 43.0322 10.7458C43.0588 10.8125 43.0703 10.8843 43.066 10.956C43.0542 11.139 42.995 11.3159 42.894 11.469C42.7582 11.6882 42.5817 11.8793 42.374 12.032C42.1106 12.2293 41.8158 12.3808 41.502 12.48C41.1119 12.6058 40.7038 12.6663 40.294 12.659C39.8497 12.6856 39.4047 12.6202 38.9868 12.4671C38.5688 12.314 38.187 12.0764 37.865 11.769C37.5675 11.444 37.3377 11.0629 37.189 10.6481C37.0403 10.2333 36.9757 9.79304 36.999 9.35301C36.9945 8.89977 37.0669 8.44905 37.213 8.02C37.3442 7.62903 37.5565 7.27021 37.836 6.96702C38.1168 6.66871 38.4619 6.43821 38.845 6.29301C39.2698 6.13228 39.7209 6.05258 40.175 6.05802C40.7442 6.04132 41.3073 6.17957 41.804 6.45802C42.2335 6.70134 42.5864 7.05982 42.823 7.49302C43.0411 7.88969 43.1573 8.33432 43.161 8.787C43.161 9.196 43.045 9.459 42.811 9.58C42.5023 9.71628 42.1661 9.77895 41.829 9.76301V9.76301ZM38.659 8.843H41.6C41.5981 8.38916 41.4399 7.94985 41.152 7.59901C41.0204 7.46137 40.8611 7.35336 40.6845 7.28214C40.5079 7.21093 40.3182 7.17816 40.128 7.18601C39.9411 7.17964 39.755 7.2137 39.5824 7.28584C39.4098 7.35798 39.2548 7.4665 39.128 7.60401C38.8414 7.95519 38.6768 8.39005 38.659 8.843V8.843Z" fill="#F58225"/>
</g>
<g style="mix-blend-mode:screen">
<path d="M48.435 11.733V11.572C48.2433 11.7977 48.0274 12.0016 47.791 12.18C47.5827 12.3357 47.3502 12.4563 47.103 12.537C46.8414 12.6214 46.5678 12.6626 46.293 12.659C45.9194 12.6625 45.5501 12.5782 45.215 12.413C44.8807 12.2461 44.5876 12.007 44.357 11.713C44.1077 11.393 43.9214 11.0285 43.808 10.639C43.6805 10.2052 43.6175 9.75511 43.621 9.30302C43.5693 8.44905 43.8333 7.60586 44.363 6.934C44.6047 6.65601 44.9056 6.43558 45.2435 6.28886C45.5814 6.14213 45.9478 6.07283 46.316 6.08601C46.7233 6.07344 47.1279 6.15558 47.498 6.326C47.8525 6.51351 48.17 6.76393 48.435 7.06501V4.67301C48.417 4.40653 48.4873 4.14153 48.635 3.91901C48.7023 3.83437 48.7889 3.76706 48.8875 3.72269C48.9862 3.67833 49.094 3.65821 49.202 3.66401C49.3081 3.65741 49.4142 3.67504 49.5125 3.71558C49.6107 3.75613 49.6984 3.81853 49.769 3.89802C49.9155 4.09773 49.9864 4.34293 49.969 4.59V11.737C49.989 11.9889 49.9129 12.239 49.756 12.437C49.6858 12.513 49.6001 12.5729 49.5047 12.6128C49.4092 12.6526 49.3064 12.6715 49.203 12.668C49.0995 12.6705 48.9967 12.6503 48.9019 12.6089C48.807 12.5674 48.7224 12.5057 48.654 12.428C48.4957 12.2324 48.4174 11.984 48.435 11.733V11.733ZM45.248 9.353C45.2364 9.73681 45.3045 10.1189 45.448 10.475C45.5627 10.7584 45.7581 11.0018 46.01 11.175C46.2397 11.3291 46.5103 11.411 46.787 11.41C47.0634 11.4127 47.3347 11.3353 47.568 11.187C47.8188 11.0202 48.0147 10.7829 48.131 10.505C48.2826 10.1415 48.3546 9.74967 48.342 9.356C48.3519 8.97387 48.2799 8.59406 48.131 8.24201C48.0109 7.95657 47.8139 7.71007 47.562 7.53001C47.3312 7.36913 47.0563 7.28356 46.775 7.28501C46.4883 7.28045 46.2077 7.36848 45.975 7.53602C45.7286 7.72085 45.54 7.97196 45.431 8.26002C45.3003 8.6092 45.2382 8.9803 45.248 9.353V9.353Z" fill="#F58225"/>
</g>
<g style="mix-blend-mode:screen">
<path d="M55.059 4.586V7.06101C55.3289 6.77054 55.6436 6.52511 55.991 6.33402C56.3565 6.15503 56.7603 6.06848 57.167 6.082C57.6658 6.07177 58.1571 6.2043 58.583 6.46399C58.9997 6.7336 59.3277 7.12005 59.526 7.57501C59.762 8.11842 59.8767 8.70675 59.862 9.29901C59.8664 9.75576 59.8034 10.2106 59.675 10.649C59.5624 11.0352 59.3782 11.3968 59.132 11.715C58.901 12.011 58.6055 12.2504 58.268 12.415C57.9187 12.5813 57.5359 12.6655 57.149 12.661C56.9128 12.6621 56.6774 12.6322 56.449 12.572C56.2512 12.5226 56.062 12.4433 55.888 12.337C55.747 12.2504 55.615 12.1499 55.494 12.037C55.385 11.937 55.241 11.78 55.063 11.573V11.734C55.0812 11.9844 55.0024 12.2321 54.843 12.426C54.7723 12.5028 54.6858 12.5634 54.5895 12.6038C54.4932 12.6442 54.3894 12.6634 54.285 12.66C54.1818 12.6645 54.0789 12.6458 53.9839 12.6053C53.8889 12.5648 53.8042 12.5035 53.736 12.426C53.5882 12.2269 53.5172 11.9812 53.536 11.734V4.65799C53.518 4.39433 53.5884 4.1322 53.736 3.913C53.8019 3.82997 53.8866 3.76382 53.9831 3.72C54.0796 3.67618 54.1851 3.65597 54.291 3.66101C54.399 3.65443 54.507 3.67264 54.6068 3.71423C54.7067 3.75583 54.7957 3.81971 54.867 3.901C55.0099 4.09952 55.0779 4.34216 55.059 4.586ZM55.136 9.401C55.101 9.93293 55.2578 10.4598 55.578 10.886C55.7192 11.0554 55.8971 11.1904 56.0983 11.2807C56.2995 11.371 56.5186 11.4142 56.739 11.407C56.9436 11.4054 57.1451 11.3565 57.3278 11.2643C57.5104 11.172 57.6693 11.0388 57.792 10.875C58.1139 10.4355 58.2707 9.89662 58.235 9.353C58.2439 8.97636 58.1815 8.60142 58.051 8.24799C57.9474 7.96546 57.7666 7.71771 57.529 7.53299C57.3004 7.36489 57.0227 7.27672 56.739 7.28201C56.4446 7.27774 56.1562 7.36546 55.914 7.53299C55.6591 7.7178 55.4615 7.97085 55.344 8.263C55.1978 8.62382 55.127 9.01077 55.136 9.39999V9.401Z" fill="#F58225"/>
</g>
<g style="mix-blend-mode:screen">
<path d="M61.963 12.861L62.111 12.499L60.116 7.47699C60.0184 7.27932 59.9562 7.0661 59.932 6.84699C59.9316 6.71126 59.9686 6.57806 60.039 6.46201C60.1106 6.34311 60.2119 6.24489 60.333 6.17701C60.4507 6.10691 60.585 6.06962 60.722 6.069C60.8214 6.06238 60.921 6.0792 61.0127 6.11811C61.1044 6.15702 61.1857 6.21692 61.25 6.293C61.3915 6.48525 61.4981 6.70085 61.565 6.93L62.936 10.919L64.236 7.20902C64.3153 6.96851 64.4085 6.73276 64.515 6.50299C64.5706 6.36701 64.6618 6.24853 64.779 6.16001C64.8994 6.09289 65.0364 6.06133 65.174 6.069C65.2986 6.06967 65.4206 6.10425 65.527 6.16901C65.6369 6.23093 65.7273 6.32239 65.788 6.43302C65.8485 6.53979 65.8805 6.66029 65.881 6.78299C65.864 6.85799 65.839 6.96501 65.803 7.10401C65.767 7.24301 65.724 7.384 65.673 7.525L63.56 13.058C63.4192 13.4561 63.24 13.8396 63.025 14.203C62.857 14.4749 62.6177 14.6956 62.333 14.841C61.9693 15.0057 61.5718 15.0821 61.173 15.064C60.8105 15.0817 60.4479 15.0298 60.105 14.911C59.9931 14.8668 59.8983 14.7881 59.8343 14.6863C59.7703 14.5845 59.7404 14.465 59.749 14.345C59.744 14.2655 59.7566 14.1858 59.7858 14.1117C59.815 14.0376 59.8601 13.9708 59.918 13.916C60.0598 13.8045 60.2381 13.7499 60.418 13.763C60.5047 13.7627 60.5909 13.7752 60.674 13.8C60.7611 13.8212 60.8503 13.833 60.94 13.835C61.0912 13.8424 61.2419 13.814 61.38 13.752C61.5002 13.6837 61.5997 13.5842 61.668 13.464C61.7817 13.2709 61.8803 13.0693 61.963 12.861V12.861Z" fill="#F58225"/>
</g>
</g>
<g style="mix-blend-mode:screen">
<g style="mix-blend-mode:screen">
<path d="M85.439 6.21H85.826V5.72401C85.8087 5.31158 85.874 4.89987 86.018 4.51301C86.1419 4.21794 86.3767 3.98338 86.672 3.85999C87.0741 3.70871 87.5028 3.64069 87.932 3.66001C88.882 3.66001 89.353 3.88999 89.353 4.35999C89.3556 4.50277 89.3017 4.64081 89.203 4.744C89.1599 4.79438 89.1064 4.83481 89.0461 4.86244C88.9859 4.89006 88.9203 4.90424 88.854 4.904C88.7433 4.89972 88.633 4.88771 88.524 4.86802C88.3953 4.84744 88.2653 4.83541 88.135 4.83201C88.0256 4.81589 87.9139 4.83188 87.8134 4.87803C87.713 4.92418 87.6281 4.99853 87.569 5.09202C87.4774 5.32753 87.4358 5.57954 87.447 5.83201V6.218H87.847C88.466 6.218 88.772 6.40302 88.772 6.77802C88.772 7.03902 88.693 7.20902 88.527 7.27802C88.3096 7.35791 88.0784 7.39393 87.847 7.38401H87.447V11.684C87.4661 11.9477 87.3839 12.2089 87.217 12.414C87.1436 12.4973 87.0526 12.5633 86.9505 12.607C86.8485 12.6508 86.738 12.6713 86.627 12.667C86.5186 12.6695 86.411 12.6482 86.3118 12.6044C86.2126 12.5607 86.1243 12.4957 86.053 12.414C85.8885 12.2078 85.8074 11.9472 85.826 11.684V7.38401H85.379C85.1798 7.39811 84.9822 7.34028 84.822 7.22102C84.7579 7.17083 84.7065 7.10634 84.6717 7.03272C84.637 6.9591 84.62 6.87838 84.622 6.79701C84.622 6.40801 84.893 6.215 85.436 6.215" fill="#F58225"/>
</g>
<g style="mix-blend-mode:screen">
<path d="M90.746 10.319V11.674C90.7644 11.9406 90.6803 12.2042 90.511 12.411C90.4368 12.4918 90.346 12.5556 90.2449 12.598C90.1437 12.6405 90.0346 12.6606 89.925 12.657C89.8161 12.6611 89.7077 12.6408 89.6077 12.5975C89.5076 12.5543 89.4185 12.4892 89.347 12.407C89.1835 12.1991 89.103 11.9379 89.121 11.674V7.15899C89.121 6.43099 89.3836 6.06697 89.909 6.06697C90.0199 6.05673 90.1317 6.07475 90.2338 6.11934C90.3359 6.16393 90.4251 6.23363 90.493 6.32198C90.628 6.55002 90.6972 6.811 90.693 7.07598C90.8464 6.79278 91.0469 6.5378 91.286 6.32198C91.5196 6.14232 91.8097 6.0519 92.104 6.06697C92.4504 6.06779 92.7912 6.15546 93.095 6.32198C93.232 6.37638 93.3504 6.46924 93.4359 6.58934C93.5214 6.70945 93.5704 6.85169 93.577 6.99898C93.5801 7.09 93.5639 7.18065 93.5294 7.26494C93.495 7.34923 93.443 7.42526 93.377 7.488C93.2623 7.61038 93.1037 7.68228 92.936 7.68798C92.788 7.66659 92.6428 7.62903 92.503 7.57598C92.3094 7.51043 92.1073 7.47373 91.903 7.467C91.6928 7.45928 91.4865 7.52543 91.32 7.65398C91.1542 7.80296 91.0324 7.9946 90.968 8.208C90.8799 8.49374 90.8226 8.78807 90.797 9.08599C90.766 9.42399 90.753 9.83799 90.753 10.324" fill="#F58225"/>
</g>
<g style="mix-blend-mode:screen">
<path d="M98.2 9.761H95.028C95.0259 10.0984 95.1018 10.4318 95.25 10.735C95.3795 10.9968 95.5797 11.2171 95.828 11.371C96.0682 11.5124 96.3423 11.5857 96.621 11.583C96.8004 11.5864 96.9794 11.5631 97.152 11.514C97.3171 11.4671 97.474 11.3949 97.617 11.3C97.7642 11.2079 97.903 11.1032 98.032 10.987C98.159 10.879 98.324 10.728 98.527 10.538C98.6288 10.4611 98.7546 10.4229 98.882 10.43C99.028 10.4247 99.1708 10.4743 99.282 10.569C99.3346 10.6177 99.3756 10.6776 99.4021 10.7442C99.4285 10.8108 99.4398 10.8825 99.435 10.954C99.424 11.1362 99.3665 11.3124 99.268 11.466C99.1311 11.6861 98.9536 11.8782 98.745 12.032C98.4802 12.228 98.1849 12.379 97.871 12.479C97.4811 12.6039 97.0733 12.6641 96.664 12.657C96.2198 12.6843 95.7747 12.6195 95.3567 12.4667C94.9387 12.3139 94.5568 12.0764 94.235 11.769C93.937 11.4439 93.7068 11.0628 93.5576 10.6478C93.4084 10.2329 93.3433 9.79238 93.366 9.352C93.3621 8.89792 93.4355 8.44649 93.583 8.01701C93.7125 7.62477 93.9254 7.26523 94.207 6.96302C94.4865 6.66361 94.8315 6.43292 95.215 6.28901C95.6394 6.12826 96.0902 6.04887 96.544 6.055C97.1136 6.03751 97.6772 6.17581 98.174 6.455C98.6051 6.6954 98.9583 7.05423 99.192 7.48902C99.4116 7.88727 99.5278 8.33423 99.53 8.78901C99.5524 8.94046 99.5314 9.09515 99.4694 9.23515C99.4075 9.37515 99.3071 9.4947 99.18 9.58C98.8702 9.71606 98.5329 9.77803 98.195 9.761H98.2ZM95.023 8.839H97.961C97.9611 8.38623 97.8038 7.9475 97.516 7.598C97.3843 7.46024 97.2248 7.35214 97.0481 7.28092C96.8713 7.20971 96.6814 7.17701 96.491 7.18501C96.3047 7.17869 96.1193 7.21289 95.9475 7.28523C95.7757 7.35757 95.6216 7.46634 95.496 7.60401C95.2075 7.95289 95.0414 8.38669 95.023 8.839" fill="#F58225"/>
</g>
<g style="mix-blend-mode:screen">
<path d="M104.938 9.76098H101.767C101.765 10.0983 101.84 10.4317 101.988 10.735C102.117 10.9967 102.317 11.2171 102.565 11.371C102.805 11.5127 103.08 11.5861 103.359 11.583C103.537 11.5864 103.715 11.5632 103.887 11.514C104.053 11.4673 104.211 11.3951 104.355 11.3C104.502 11.2079 104.641 11.1032 104.77 10.987C104.895 10.879 105.061 10.728 105.263 10.538C105.365 10.4614 105.491 10.4232 105.619 10.43C105.767 10.4234 105.912 10.4731 106.025 10.569C106.077 10.618 106.117 10.678 106.143 10.7446C106.169 10.8112 106.18 10.8827 106.175 10.954C106.165 11.1369 106.106 11.3137 106.004 11.466C105.871 11.6878 105.695 11.8804 105.486 12.032C105.222 12.2282 104.927 12.3793 104.613 12.479C104.222 12.604 103.814 12.6641 103.404 12.657C102.96 12.6839 102.515 12.6189 102.097 12.4661C101.679 12.3133 101.297 12.076 100.975 11.769C100.677 11.4437 100.447 11.0625 100.298 10.6476C100.149 10.2327 100.084 9.79227 100.107 9.35198C100.102 8.89776 100.176 8.44617 100.325 8.01699C100.455 7.6256 100.667 7.26636 100.947 6.963C101.227 6.66403 101.572 6.43341 101.955 6.28899C102.38 6.12859 102.832 6.04922 103.286 6.05498C103.856 6.03841 104.421 6.17663 104.919 6.45498C105.348 6.69587 105.7 7.0547 105.932 7.489C106.152 7.88723 106.269 8.33404 106.273 8.78899C106.295 8.9404 106.273 9.09488 106.212 9.23476C106.15 9.37464 106.05 9.49426 105.923 9.57998C105.613 9.71576 105.276 9.77772 104.938 9.76098V9.76098ZM101.767 8.83898H104.706C104.703 8.38647 104.545 7.94864 104.259 7.59798C104.127 7.46048 103.967 7.35258 103.79 7.28139C103.613 7.2102 103.423 7.17734 103.232 7.18499C103.045 7.17874 102.859 7.21296 102.686 7.28527C102.514 7.35758 102.359 7.4663 102.232 7.60399C101.945 7.95335 101.78 8.38712 101.763 8.83898" fill="#F58225"/>
</g>
<g style="mix-blend-mode:screen">
<path d="M108.487 6.979V7.173C108.746 6.83557 109.07 6.55393 109.441 6.345C109.783 6.16277 110.166 6.07087 110.554 6.078C111.041 6.07595 111.518 6.20961 111.933 6.46399C112.366 6.73702 112.711 7.12898 112.927 7.59298C113.182 8.1435 113.307 8.74535 113.293 9.35199C113.297 9.81895 113.226 10.2836 113.083 10.728C112.96 11.1125 112.763 11.469 112.502 11.777C112.263 12.0547 111.967 12.2774 111.634 12.43C111.294 12.5823 110.926 12.6597 110.554 12.657C110.147 12.6712 109.744 12.5747 109.388 12.378C109.041 12.1633 108.736 11.8871 108.488 11.563V13.995C108.488 14.704 108.228 15.063 107.711 15.063C107.594 15.0789 107.475 15.0617 107.368 15.0132C107.261 14.9648 107.169 14.8871 107.104 14.789C106.994 14.5347 106.944 14.2586 106.958 13.982V6.98199C106.939 6.7348 107.01 6.4892 107.158 6.29001C107.228 6.21429 107.314 6.15477 107.409 6.11557C107.505 6.07637 107.608 6.05841 107.711 6.06298C107.816 6.05935 107.92 6.07829 108.016 6.1185C108.113 6.1587 108.2 6.21923 108.271 6.29599C108.428 6.48593 108.506 6.72917 108.488 6.975L108.487 6.979ZM111.666 9.32998C111.674 8.9536 111.606 8.5795 111.466 8.23001C111.355 7.95059 111.168 7.70798 110.926 7.53C110.702 7.36734 110.432 7.28047 110.155 7.28201C109.939 7.28006 109.726 7.32635 109.53 7.41754C109.335 7.50872 109.162 7.64246 109.025 7.80899C108.687 8.255 108.522 8.80871 108.562 9.367C108.53 9.90605 108.693 10.4386 109.022 10.867C109.157 11.0372 109.33 11.1741 109.526 11.2672C109.722 11.3603 109.938 11.4071 110.155 11.404C110.422 11.4037 110.684 11.3225 110.904 11.171C111.151 10.9949 111.342 10.7521 111.455 10.471C111.602 10.1114 111.673 9.72531 111.663 9.337" fill="#F58225"/>
</g>
<g style="mix-blend-mode:screen">
<path d="M114.925 5.31298C114.713 5.31684 114.508 5.24202 114.348 5.10299C114.271 5.02793 114.209 4.93801 114.168 4.83864C114.126 4.73927 114.105 4.63249 114.105 4.52471C114.106 4.41693 114.128 4.31038 114.171 4.21144C114.214 4.11251 114.276 4.02324 114.354 3.94899C114.509 3.80489 114.713 3.72546 114.925 3.72698C115.129 3.72417 115.327 3.79521 115.483 3.92699C115.566 4.00059 115.631 4.09216 115.673 4.19475C115.716 4.29734 115.734 4.40826 115.727 4.519C115.733 4.62773 115.715 4.73639 115.674 4.83742C115.633 4.93845 115.571 5.02942 115.492 5.10399C115.336 5.24178 115.133 5.3166 114.925 5.31398V5.31298ZM115.725 6.98699V11.676C115.744 11.9403 115.662 12.2021 115.495 12.408C115.421 12.4898 115.33 12.5545 115.228 12.5976C115.126 12.6408 115.016 12.6614 114.906 12.658C114.797 12.6617 114.688 12.641 114.587 12.5972C114.487 12.5534 114.398 12.4877 114.326 12.405C114.167 12.1962 114.089 11.9377 114.104 11.676V7.03298C114.086 6.77341 114.165 6.5164 114.326 6.312C114.399 6.23153 114.489 6.16799 114.589 6.12584C114.689 6.0837 114.797 6.06395 114.906 6.06798C115.016 6.06443 115.125 6.08435 115.227 6.12642C115.328 6.1685 115.42 6.23178 115.495 6.312C115.657 6.49849 115.739 6.74063 115.725 6.98699" fill="#F58225"/>
</g>
<g style="mix-blend-mode:screen">
<path d="M120.952 11.918L119.525 9.56401L118.645 10.394V11.686C118.653 11.8162 118.636 11.9467 118.593 12.07C118.551 12.1933 118.484 12.3068 118.397 12.404C118.326 12.4837 118.239 12.5475 118.141 12.5911C118.044 12.6347 117.938 12.6572 117.831 12.657C117.72 12.663 117.61 12.6435 117.508 12.6002C117.405 12.5569 117.315 12.4908 117.242 12.407C117.085 12.1962 117.009 11.9362 117.027 11.674V4.76002C117.01 4.47111 117.082 4.18391 117.235 3.938C117.304 3.84507 117.395 3.77069 117.499 3.72148C117.604 3.67227 117.719 3.64978 117.835 3.65602C117.947 3.65124 118.058 3.67178 118.161 3.71611C118.264 3.76044 118.355 3.82739 118.428 3.912C118.589 4.12823 118.667 4.395 118.649 4.66401V8.60002L120.471 6.68602C120.63 6.51043 120.803 6.3476 120.988 6.19902C121.114 6.11056 121.265 6.06531 121.419 6.07002C121.608 6.06521 121.791 6.13449 121.929 6.26301C121.994 6.32522 122.045 6.40028 122.08 6.48344C122.114 6.5666 122.131 6.65603 122.129 6.74601C122.129 6.98301 121.908 7.302 121.47 7.697L120.609 8.486L122.271 11.1C122.392 11.3 122.483 11.44 122.536 11.541C122.585 11.6296 122.613 11.7286 122.617 11.83C122.629 12.0531 122.552 12.2718 122.404 12.439C122.332 12.5126 122.246 12.5703 122.151 12.6084C122.056 12.6465 121.954 12.6641 121.851 12.66C121.768 12.6662 121.684 12.6553 121.605 12.628C121.526 12.6007 121.454 12.5574 121.392 12.501C121.23 12.321 121.084 12.1268 120.956 11.921" fill="#F58225"/>
</g>
<g style="mix-blend-mode:screen">
<path d="M124.475 12.657C124.241 12.6616 124.014 12.5764 123.841 12.419C123.75 12.3349 123.679 12.2317 123.632 12.1166C123.586 12.0016 123.566 11.8778 123.573 11.754C123.572 11.6386 123.594 11.5241 123.638 11.4173C123.682 11.3106 123.747 11.2139 123.829 11.133C123.91 11.0479 124.008 10.9805 124.116 10.9352C124.225 10.8899 124.341 10.8677 124.459 10.87C124.577 10.8688 124.695 10.8909 124.805 10.9352C124.915 10.9795 125.015 11.045 125.099 11.128C125.268 11.3001 125.362 11.5315 125.362 11.7725C125.362 12.0135 125.268 12.2449 125.099 12.417C124.93 12.5742 124.706 12.6601 124.475 12.657" fill="#F58225"/>
</g>
<g style="mix-blend-mode:screen">
<path d="M132.536 10.652C132.529 10.8788 132.467 11.1004 132.355 11.298C132.216 11.5516 132.027 11.7747 131.8 11.954C131.524 12.1785 131.207 12.3482 130.867 12.454C130.457 12.5866 130.028 12.6515 129.597 12.646C129.166 12.6707 128.735 12.6056 128.33 12.4548C127.926 12.304 127.557 12.0708 127.248 11.77C126.96 11.4529 126.738 11.0822 126.594 10.6792C126.449 10.2761 126.386 9.84857 126.407 9.42098C126.394 8.80995 126.527 8.20462 126.794 7.65499C127.039 7.15778 127.427 6.74536 127.908 6.471C128.806 6.01223 129.848 5.92808 130.808 6.23699C131.129 6.34491 131.43 6.50543 131.699 6.71199C131.92 6.88343 132.108 7.09348 132.254 7.33199C132.373 7.51623 132.439 7.72903 132.447 7.94799C132.448 8.04061 132.43 8.13245 132.393 8.21733C132.356 8.30221 132.301 8.37815 132.232 8.43999C132.09 8.5721 131.902 8.64382 131.708 8.64C131.587 8.64573 131.468 8.61048 131.37 8.54C131.253 8.44313 131.152 8.32915 131.07 8.20198C130.907 7.93959 130.696 7.71053 130.448 7.527C130.133 7.3335 129.759 7.26071 129.395 7.32213C129.031 7.38356 128.702 7.57501 128.468 7.86098C128.153 8.30868 127.998 8.84941 128.028 9.39598C128.025 9.68073 128.064 9.96436 128.143 10.238C128.207 10.4747 128.318 10.6963 128.468 10.89C128.606 11.0647 128.782 11.2048 128.984 11.299C129.192 11.3958 129.419 11.4444 129.649 11.441C129.943 11.4493 130.234 11.3707 130.484 11.215C130.743 11.039 130.955 10.8025 131.101 10.526C131.183 10.3672 131.29 10.223 131.419 10.099C131.484 10.0435 131.558 10.0013 131.639 9.97487C131.72 9.9484 131.805 9.93815 131.89 9.94475C131.975 9.95135 132.058 9.97464 132.134 10.0133C132.209 10.0519 132.277 10.1052 132.332 10.17C132.456 10.2998 132.528 10.4713 132.532 10.651" fill="#F58225"/>
</g>
<g style="mix-blend-mode:screen">
<path d="M139.53 9.36401C139.533 9.81913 139.458 10.2714 139.308 10.701C139.166 11.0926 138.942 11.4497 138.652 11.749C138.364 12.0439 138.016 12.2741 137.632 12.424C137.205 12.5849 136.751 12.6646 136.295 12.659C135.842 12.6659 135.391 12.5844 134.969 12.419C134.587 12.2682 134.241 12.0377 133.954 11.743C133.665 11.4429 133.441 11.0865 133.296 10.696C133.002 9.8262 133.004 8.88373 133.301 8.01501C133.438 7.62509 133.658 7.26964 133.946 6.97345C134.234 6.67726 134.583 6.44742 134.969 6.29999C135.393 6.14102 135.842 6.06201 136.295 6.06698C136.752 6.06019 137.206 6.14099 137.632 6.30499C138.019 6.4531 138.37 6.68361 138.66 6.98059C138.949 7.27757 139.171 7.63393 139.309 8.02499C139.46 8.45507 139.535 8.90822 139.53 9.36401V9.36401ZM137.903 9.36401C137.936 8.81523 137.782 8.27148 137.467 7.82101C137.331 7.64116 137.153 7.49681 136.949 7.40021C136.745 7.3036 136.521 7.25755 136.295 7.26599C135.997 7.26087 135.704 7.34668 135.456 7.51199C135.201 7.69292 135.008 7.94673 134.9 8.23999C134.761 8.59814 134.693 8.97992 134.7 9.36401C134.692 9.74237 134.757 10.1187 134.893 10.472C135.003 10.7638 135.195 11.0171 135.447 11.201C135.696 11.3709 135.991 11.4593 136.292 11.454C136.518 11.4619 136.742 11.4152 136.946 11.3181C137.15 11.221 137.328 11.0762 137.464 10.896C137.777 10.4489 137.931 9.90917 137.9 9.36401" fill="#F58225"/>
</g>
<g style="mix-blend-mode:screen">
<path d="M145.713 9.482V11.637C145.734 11.9125 145.652 12.186 145.482 12.404C145.405 12.4886 145.31 12.5552 145.204 12.5993C145.099 12.6433 144.984 12.6637 144.87 12.659C144.758 12.6635 144.647 12.6429 144.544 12.5988C144.441 12.5547 144.35 12.4881 144.276 12.404C144.106 12.1859 144.024 11.9126 144.044 11.637V9.055C144.048 8.73683 144.035 8.41867 144.004 8.10199C143.984 7.89995 143.905 7.70813 143.778 7.54999C143.704 7.47231 143.613 7.41227 143.512 7.37421C143.411 7.33615 143.303 7.32102 143.196 7.32999C142.986 7.30289 142.772 7.34125 142.585 7.43985C142.397 7.53846 142.245 7.69253 142.148 7.88102C141.955 8.38001 141.869 8.91369 141.894 9.448V11.637C141.913 11.9104 141.833 12.1813 141.669 12.401C141.591 12.4826 141.497 12.5475 141.393 12.5918C141.29 12.6361 141.178 12.659 141.065 12.659C140.952 12.659 140.84 12.6361 140.737 12.5918C140.633 12.5475 140.539 12.4826 140.461 12.401C140.29 12.1848 140.206 11.9121 140.226 11.637V7C140.208 6.75064 140.282 6.50333 140.436 6.306C140.505 6.22781 140.591 6.16591 140.687 6.12476C140.783 6.08361 140.887 6.06422 140.991 6.068C141.094 6.06596 141.197 6.08456 141.292 6.12268C141.388 6.16081 141.475 6.2177 141.549 6.29001C141.625 6.37236 141.684 6.46928 141.722 6.57496C141.76 6.68063 141.776 6.79289 141.77 6.905V7.05802C142.016 6.75256 142.322 6.50157 142.67 6.32102C143.003 6.15608 143.37 6.07309 143.741 6.07901C144.105 6.06923 144.466 6.15323 144.789 6.323C145.093 6.49742 145.344 6.75157 145.514 7.05802C145.755 6.75535 146.055 6.50465 146.396 6.32102C146.718 6.15706 147.074 6.07399 147.435 6.07901C147.833 6.06962 148.227 6.15966 148.581 6.34101C148.892 6.50842 149.143 6.76985 149.297 7.08802C149.46 7.53108 149.53 8.00272 149.504 8.474V11.638C149.525 11.9133 149.443 12.1866 149.274 12.405C149.195 12.4862 149.101 12.5508 148.997 12.5949C148.892 12.639 148.78 12.6617 148.667 12.6617C148.554 12.6617 148.442 12.639 148.337 12.5949C148.233 12.5508 148.139 12.4862 148.06 12.405C147.888 12.189 147.804 11.9162 147.824 11.641V8.91501C147.828 8.63571 147.813 8.35648 147.781 8.07901C147.757 7.88208 147.674 7.69712 147.542 7.54902C147.463 7.47311 147.368 7.41473 147.265 7.37769C147.162 7.34065 147.051 7.32578 146.942 7.33402C146.724 7.33669 146.512 7.40385 146.333 7.52701C146.141 7.65352 145.985 7.82882 145.883 8.03501C145.738 8.50435 145.678 8.99566 145.706 9.486" fill="#F58225"/>
</g>
</g>
<g style="mix-blend-mode:screen">
<g style="mix-blend-mode:screen">
<path d="M70.354 9.48999C70.323 9.34199 70.298 9.19499 70.279 9.04999C70.3 9.19999 70.325 9.34299 70.354 9.48999Z" fill="#F58225"/>
</g>
<g style="mix-blend-mode:screen">
<path d="M70.89 10.994L70.88 10.973L70.89 10.994Z" fill="#F58225"/>
</g>
<g style="mix-blend-mode:screen">
<path d="M70.839 10.894C70.825 10.865 70.812 10.837 70.798 10.809L70.839 10.894Z" fill="#F58225"/>
</g>
<g style="mix-blend-mode:screen">
<path d="M70.505 10.068C70.5826 10.3158 70.6778 10.5578 70.79 10.792C70.6787 10.5576 70.5842 10.3157 70.507 10.068H70.505Z" fill="#F58225"/>
</g>
<g style="mix-blend-mode:screen">
<path d="M76.545 2.76099C76.8166 2.75983 77.0877 2.78327 77.355 2.83099L77.43 2.353C76.8778 2.20786 76.3049 2.15848 75.736 2.207L75.66 1.948C75.8196 1.91414 75.9609 1.8224 76.0569 1.69046C76.1528 1.55852 76.1964 1.39572 76.1794 1.23349C76.1624 1.07126 76.0859 0.921108 75.9647 0.811951C75.8435 0.702793 75.6861 0.642365 75.523 0.642365C75.3599 0.642365 75.2025 0.702793 75.0813 0.811951C74.9601 0.921108 74.8836 1.07126 74.8666 1.23349C74.8496 1.39572 74.8932 1.55852 74.9892 1.69046C75.0851 1.8224 75.2264 1.91414 75.386 1.948L75.469 2.237C74.8352 2.32868 74.2176 2.51017 73.635 2.776L73.779 3.21701C74.3106 3.03166 74.8604 2.90294 75.419 2.83301C75.7929 2.78968 76.1687 2.76563 76.545 2.76099V2.76099Z" fill="#F58225"/>
</g>
<g style="mix-blend-mode:screen">
<path d="M70.878 5.172V5.16699C70.902 5.13699 70.925 5.107 70.949 5.078L70.749 4.93799L70.444 4.71399C70.0807 5.08757 69.7843 5.5209 69.568 5.995C69.5514 5.96848 69.5327 5.94341 69.512 5.92001C69.4513 5.85651 69.3774 5.80709 69.2955 5.7753C69.2136 5.7435 69.1257 5.73009 69.038 5.73599H69.029C68.9317 5.74023 68.8364 5.70775 68.762 5.64499C68.8205 5.57135 68.8522 5.48002 68.852 5.38599C68.8522 5.30307 68.8278 5.22199 68.7819 5.15295C68.736 5.08392 68.6706 5.03004 68.594 4.99817C68.5175 4.9663 68.4332 4.95788 68.3519 4.97394C68.2705 4.98999 68.1958 5.02982 68.1371 5.08838C68.0784 5.14694 68.0384 5.22158 68.0221 5.30289C68.0059 5.38419 68.0141 5.46848 68.0458 5.5451C68.0775 5.62173 68.1312 5.68722 68.2001 5.73331C68.269 5.77939 68.3501 5.80399 68.433 5.80399C68.4684 5.8033 68.5035 5.79895 68.538 5.79099C68.6006 5.86077 68.6779 5.91575 68.7644 5.9519C68.8509 5.98806 68.9444 6.00449 69.038 6C69.0882 5.99565 69.1387 6.00235 69.1861 6.01962C69.2334 6.0369 69.2764 6.06434 69.312 6.10001C69.3729 6.17648 69.4079 6.27033 69.412 6.36801V6.36801C69.2441 6.90745 69.178 7.47338 69.217 8.03699L69.878 8.064C69.8891 7.59071 69.9672 7.1214 70.11 6.67001C70.3003 6.13964 70.5585 5.6361 70.878 5.172V5.172Z" fill="#F58225"/>
</g>
<g style="mix-blend-mode:screen">
<path d="M82.3 3.31299C82.189 3.31325 82.0827 3.35752 82.0044 3.43607C81.926 3.51461 81.882 3.62104 81.882 3.73199C81.8821 3.76588 81.8872 3.79957 81.897 3.832C81.8267 3.89578 81.7713 3.97428 81.7348 4.06192C81.6984 4.14956 81.6817 4.24416 81.686 4.33899C81.6906 4.38906 81.6839 4.43952 81.6667 4.48672C81.6494 4.53393 81.6218 4.57672 81.586 4.612C81.5328 4.65604 81.4697 4.68628 81.402 4.70001C81.095 4.27558 80.7239 3.90143 80.302 3.591L79.827 4.09799C80.2325 4.47088 80.5947 4.88819 80.907 5.34201C81.1783 5.7415 81.4158 6.16295 81.617 6.60199L82.257 6.302C82.0603 5.82753 81.8262 5.36943 81.557 4.93201C81.633 4.90574 81.703 4.86461 81.763 4.811C81.827 4.7509 81.8767 4.67721 81.9083 4.59534C81.94 4.51347 81.9529 4.42553 81.946 4.33801C81.9412 4.23759 81.9744 4.13906 82.039 4.06201C82.1128 4.1193 82.2035 4.15058 82.297 4.151C82.4079 4.151 82.5142 4.10695 82.5926 4.02856C82.671 3.95017 82.715 3.84386 82.715 3.733C82.715 3.62214 82.671 3.51583 82.5926 3.43744C82.5142 3.35905 82.4079 3.315 82.297 3.315L82.3 3.31299Z" fill="#F58225"/>
</g>
<g style="mix-blend-mode:screen">
<path d="M80.635 9.065C79.2961 9.70336 77.866 10.1291 76.396 10.327C75.6858 10.4234 74.9698 10.4709 74.253 10.469C73.5088 10.4689 72.7653 10.4221 72.027 10.329C71.354 10.245 70.827 10.141 70.507 10.068C70.5842 10.3157 70.6787 10.5576 70.79 10.792L70.798 10.809C70.812 10.837 70.825 10.865 70.839 10.894L70.88 10.973L70.89 10.994C71.0746 11.3432 71.3017 11.6684 71.566 11.962C72.0412 12.5224 72.679 12.9212 73.391 13.103H73.406L73.419 13.108C74.0883 13.2954 74.7811 13.385 75.476 13.374C76.6953 13.3737 77.9018 13.1254 79.022 12.644C79.8188 12.2511 80.5147 11.6805 81.056 10.976C81.3547 10.5388 81.5766 10.0539 81.712 9.54199C81.8017 9.16873 81.8327 8.7838 81.804 8.401C81.4296 8.64827 81.0391 8.8701 80.635 9.065V9.065Z" fill="#F58225"/>
</g>
<g style="mix-blend-mode:screen">
<path d="M71.161 5.38101C70.8669 5.81944 70.6284 6.29274 70.451 6.79001C70.3036 7.28855 70.2308 7.80614 70.235 8.32599C70.2349 8.53684 70.247 8.74753 70.271 8.957V8.96799C70.271 8.99499 70.278 9.02 70.28 9.047C70.299 9.192 70.324 9.339 70.355 9.487C72.3093 9.94718 74.3303 10.0532 76.322 9.79999C77.7302 9.61227 79.1008 9.20749 80.385 8.60001C80.8479 8.38082 81.2909 8.12183 81.709 7.82599C81.4586 7.01747 81.0918 6.24975 80.62 5.547C80.2587 4.94991 79.7799 4.43241 79.2127 4.02588C78.6454 3.61935 78.0015 3.33226 77.32 3.18201C77.0632 3.13647 76.8028 3.11372 76.542 3.11402C76.178 3.11935 75.8145 3.14337 75.453 3.18601C74.9132 3.25108 74.3823 3.37586 73.87 3.55802C73.0551 3.82541 72.3056 4.26116 71.67 4.83701L71.65 4.857C71.4726 5.0177 71.3091 5.193 71.161 5.38101V5.38101ZM78.829 4.965C79.0447 4.9648 79.2556 5.02861 79.4351 5.14835C79.6145 5.26809 79.7543 5.43837 79.8369 5.63764C79.9195 5.83691 79.9411 6.0562 79.899 6.26776C79.8569 6.47932 79.753 6.67365 79.6004 6.82611C79.4478 6.97857 79.2534 7.08233 79.0418 7.12424C78.8302 7.16615 78.6109 7.14433 78.4117 7.06156C78.2125 6.97878 78.0424 6.83875 77.9228 6.65921C77.8032 6.47968 77.7396 6.26872 77.74 6.05301C77.7405 5.76445 77.8555 5.48786 78.0596 5.28391C78.2637 5.07995 78.5404 4.96526 78.829 4.965V4.965ZM73.678 4.92099C74.026 4.92099 74.3663 5.02419 74.6557 5.21753C74.9451 5.41088 75.1707 5.6857 75.3039 6.00724C75.4372 6.32878 75.4721 6.68261 75.4043 7.02399C75.3364 7.36537 75.1689 7.67896 74.9229 7.92514C74.6768 8.17132 74.3633 8.33905 74.022 8.40708C73.6806 8.4751 73.3268 8.44037 73.0052 8.30731C72.6836 8.17426 72.4086 7.94885 72.2151 7.65955C72.0216 7.37025 71.9182 7.03006 71.918 6.68201C71.9179 6.4508 71.9633 6.22183 72.0517 6.00818C72.1401 5.79453 72.2697 5.6004 72.4331 5.43686C72.5966 5.27332 72.7906 5.14357 73.0042 5.05506C73.2178 4.96655 73.4468 4.92099 73.678 4.92099V4.92099Z" fill="#F58225"/>
</g>
</g>
</g>
</svg>
