<svg width="30" height="25" viewBox="0 0 30 25" fill="none" xmlns="http://www.w3.org/2000/svg">
<path d="M14.8 21.211C11.8608 21.2046 8.97456 20.4279 6.42914 18.9582C3.88372 17.4886 1.76803 15.3773 0.292999 12.835L0.00299072 12.335L0.292999 11.835C1.76284 9.28815 3.8773 7.17316 6.42377 5.70267C8.97023 4.23217 11.8589 3.45801 14.7995 3.45801C17.7401 3.45801 20.6288 4.23217 23.1753 5.70267C25.7217 7.17316 27.8362 9.28815 29.306 11.835L29.596 12.335L29.306 12.835C27.8311 15.3772 25.7155 17.4883 23.1703 18.958C20.6251 20.4276 17.739 21.2045 14.8 21.211V21.211ZM2.327 12.334C3.65626 14.4401 5.49719 16.1753 7.67813 17.3778C9.85908 18.5803 12.309 19.2109 14.7995 19.2109C17.29 19.2109 19.7399 18.5803 21.9209 17.3778C24.1018 16.1753 25.9427 14.4401 27.272 12.334C25.9429 10.2277 24.102 8.49228 21.9211 7.28961C19.7401 6.08695 17.2901 5.45621 14.7995 5.45621C12.3089 5.45621 9.85888 6.08695 7.67792 7.28961C5.49695 8.49228 3.65609 10.2277 2.327 12.334Z" fill="#C4C4C4"/>
<path d="M14.8 21.211C13.044 21.2112 11.3274 20.6906 9.86726 19.7152C8.40713 18.7397 7.26905 17.3532 6.59697 15.7309C5.92489 14.1086 5.74901 12.3235 6.09154 10.6012C6.43407 8.87896 7.27962 7.29695 8.52129 6.05528C9.76296 4.81361 11.345 3.96806 13.0672 3.62553C14.7895 3.28301 16.5746 3.45889 18.1969 4.13097C19.8192 4.80305 21.2057 5.94113 22.1812 7.40126C23.1566 8.86139 23.6772 10.578 23.677 12.334C23.6741 14.6874 22.7379 16.9436 21.0737 18.6077C19.4096 20.2719 17.1534 21.2081 14.8 21.211V21.211ZM14.8 5.45598C13.4396 5.45578 12.1097 5.859 10.9785 6.61464C9.84729 7.37028 8.96557 8.44441 8.44484 9.70119C7.92411 10.958 7.78775 12.3409 8.05302 13.6752C8.3183 15.0095 8.9733 16.2351 9.93517 17.1971C10.897 18.1591 12.1225 18.8143 13.4568 19.0798C14.791 19.3452 16.174 19.2091 17.4309 18.6885C18.6877 18.168 19.762 17.2864 20.5178 16.1553C21.2736 15.0242 21.677 13.6944 21.677 12.334C21.6751 10.5106 20.95 8.76236 19.6608 7.47292C18.3715 6.18347 16.6234 5.4581 14.8 5.45598V5.45598Z" fill="#C4C4C4"/>
<path d="M25.3274 0.388625L2.85199 22.864L4.2662 24.2782L26.7416 1.80284L25.3274 0.388625Z" fill="#C4C4C4"/>
</svg>
